<?xml version="1.0" standalone="no"?><!DOCTYPE svg PUBLIC "-//W3C//DTD SVG 1.1//EN" "http://www.w3.org/Graphics/SVG/1.1/DTD/svg11.dtd"><svg t="1627290323435" class="icon" viewBox="0 0 1024 1024" version="1.1" xmlns="http://www.w3.org/2000/svg" p-id="1179" xmlns:xlink="http://www.w3.org/1999/xlink" width="200" height="200"><defs><style type="text/css">@font-face { font-family: feedback-iconfont; src: url("//at.alicdn.com/t/font_1031158_1uhr8ri0pk5.eot?#iefix") format("embedded-opentype"), url("//at.alicdn.com/t/font_1031158_1uhr8ri0pk5.woff2") format("woff2"), url("//at.alicdn.com/t/font_1031158_1uhr8ri0pk5.woff") format("woff"), url("//at.alicdn.com/t/font_1031158_1uhr8ri0pk5.ttf") format("truetype"), url("//at.alicdn.com/t/font_1031158_1uhr8ri0pk5.svg#iconfont") format("svg"); }
</style></defs><path d="M180.864 277.5808c-16.25088 12.288-16.25088 36.7104 0 48.9984L321.9456 433.31072c20.23424 15.3088 49.2544 0.87552 49.2544-24.4992V343.04h201.77408c118.48192 0 214.53312 89.3952 214.53312 199.68 0 110.27968-96.0512 199.68-214.53312 199.68H240.64a30.72 30.72 0 0 0-30.72 30.72v20.48a30.72 30.72 0 0 0 30.72 30.72h332.33408C740.06528 824.32 875.52 698.24512 875.52 542.72s-135.45472-281.6-302.54592-281.6H371.2V195.34848c0-25.37472-29.02016-39.808-49.2544-24.4992L180.864 277.5808z" fill="#353535" p-id="1180"></path></svg>