<?xml version="1.0" standalone="no"?><!DOCTYPE svg PUBLIC "-//W3C//DTD SVG 1.1//EN" "http://www.w3.org/Graphics/SVG/1.1/DTD/svg11.dtd"><svg t="1628917001438" class="icon" viewBox="0 0 1024 1024" version="1.1" xmlns="http://www.w3.org/2000/svg" p-id="5518" xmlns:xlink="http://www.w3.org/1999/xlink" width="32" height="32"><defs><style type="text/css"></style></defs><path d="M857.621333 646.4v192c0 31.765333-25.834667 57.6-57.6 57.6h-576a57.664 57.664 0 0 1-57.6-57.6v-192a19.2 19.2 0 0 1 38.4 0v192a19.2 19.2 0 0 0 19.2 19.2h576a19.2 19.2 0 0 0 19.2-19.2v-192a19.2 19.2 0 0 1 38.4 0zM896 338.730667v134.208c0 63.893333-49.514667 115.882667-110.4 115.882666-36.586667 0-70.570667-18.922667-91.2-50.645333-20.629333 31.765333-54.613333 50.645333-91.2 50.645333-36.565333 0-70.549333-18.922667-91.2-50.645333-20.629333 31.765333-54.613333 50.645333-91.2 50.645333-36.586667 0-70.549333-18.922667-91.2-50.645333-20.650667 31.765333-54.613333 50.645333-91.2 50.645333C177.514667 588.8 128 536.832 128 472.917333v-134.208a2.346667 2.346667 0 0 1 0.128-0.746666c0.341333-8.938667 2.730667-17.557333 7.146667-25.813334v-0.298666l0.128-0.384 87.936-150.165334C235.349333 141.312 249.941333 128 282.176 128h459.648c39.253333 0 48.277333 13.504 56.704 29.674667 0.661333 1.216 91.605333 156.608 91.605333 156.608l-0.128 0.149333c3.626667 7.530667 5.589333 15.36 5.845334 23.317333 0.085333 0.384 0.170667 0.661333 0.149333 0.981334zM198.336 281.216h627.392l-59.541333-99.221333c-7.552-12.586667-12.693333-13.781333-24.341334-13.781334H282.197333c-11.328 0-18.368 3.989333-24.341333 13.802667a19185.386667 19185.386667 0 0 0-59.52 99.2z m659.328 57.706667a18.069333 18.069333 0 0 0-18.048-17.514667H184.512a18.112 18.112 0 0 0-18.048 17.557333v133.952c0 41.685333 32.298667 75.648 72 75.648 39.68 0 72-33.941333 72-75.648v-19.136c0-11.093333 8.597333-20.117333 19.178667-20.117333 10.602667 0 19.2 9.024 19.2 20.117333v19.136c0 41.685333 32.298667 75.648 72 75.648s72-33.941333 72-75.648v-19.136c0-11.093333 8.597333-20.117333 19.2-20.117333s19.2 9.024 19.2 20.117333v19.136c0 41.685333 32.298667 75.648 72 75.648 39.68 0 72-33.941333 72-75.648v-19.136c0-11.093333 8.597333-20.117333 19.2-20.117333 10.581333 0 19.178667 9.024 19.178666 20.117333v19.136c0 41.685333 32.298667 75.648 72 75.648s72-33.941333 72-75.648h0.042667v-133.994666z" fill="#d81e06" p-id="5519"></path></svg>